<svg data-name="Layer 1" xmlns="http://www.w3.org/2000/svg" xmlns:xlink="http://www.w3.org/1999/xlink" viewBox="0 0 1156.28 929"><defs><linearGradient id="a" x1="248.88" y1="783.76" x2="248.82" y2="785.35" gradientTransform="matrix(0 2322.19 524.74 0 -411043.03 -577544.35)" gradientUnits="userSpaceOnUse"><stop offset="0" stop-color="#4052c9"/><stop offset="1" stop-color="#181927" stop-opacity="0"/></linearGradient><linearGradient id="c" x1="248.36" y1="783.76" x2="248.3" y2="785.35" gradientTransform="matrix(0 1271.43 524.74 0 -411213.25 -315803.16)" xlink:href="#a"/><linearGradient id="d" x1="249.43" y1="780.38" x2="249.37" y2="781.97" gradientTransform="matrix(-1091.58 0 0 450.51 273522.67 -351537.99)" xlink:href="#a"/><linearGradient id="e" x1="249.44" y1="780.84" x2="249.38" y2="782.43" gradientTransform="matrix(-1271.44 0 0 524.74 318243.4 -409736.58)" xlink:href="#a"/><linearGradient id="b" x1="249.21" y1="784.65" x2="247.55" y2="784.66" gradientTransform="matrix(0 1026.91 584.22 0 -458497.4 -255266.15)" gradientUnits="userSpaceOnUse"><stop offset="0" stop-color="#4052c9"/><stop offset=".93" stop-color="#181927" stop-opacity="0"/><stop offset="1" stop-color="#181927" stop-opacity="0"/></linearGradient><linearGradient id="f" x1="249.21" y1="784.65" x2="247.55" y2="784.66" gradientTransform="matrix(0 1026.91 584.22 0 -458565.7 -254315.56)" xlink:href="#b"/><linearGradient id="g" x1="248.88" y1="783.71" x2="248.82" y2="785.3" gradientTransform="matrix(1613.93 1669.66 626.35 -605.45 -892500.65 60274.57)" xlink:href="#a"/></defs><path transform="rotate(-44.03 679.616 328.916)" style="isolation:isolate" fill="url(#a)" opacity=".05" d="M417.29-832.18h524.74v2322.19H417.29z"/><path transform="rotate(-44.03 509.402 -73.026)" style="isolation:isolate" fill="url(#c)" opacity=".05" d="M247.06-708.75H771.8V562.68H247.06z"/><path transform="rotate(-44.03 509.402 -73.026)" style="isolation:isolate" opacity=".1" fill="url(#c)" d="M247.06-708.75H771.8V562.68H247.06z"/><path transform="rotate(-45 1287.064 421.99)" style="isolation:isolate" fill="url(#d)" opacity=".1" d="M741.28 196.73h1091.58v450.51H741.28z"/><path transform="rotate(-45 1136.508 457.633)" style="isolation:isolate" fill="url(#e)" opacity=".1" d="M500.79 195.26h1271.44V720H500.79z"/><path transform="rotate(-45 -84.105 -538.382)" style="isolation:isolate" fill="url(#b)" opacity=".05" d="M-376.22-1051.83H208V-24.92h-584.22z"/><path transform="rotate(-45 -152.399 412.206)" style="isolation:isolate" opacity=".3" fill="url(#f)" d="M-444.51-101.25h584.22V925.66h-584.22z"/><path d="M52.84-388.9l1613.93 1669.66-626.35 605.45L-573.51 216.55z" style="isolation:isolate" opacity=".03" fill="url(#g)"/></svg>